<?xml version="1.0" standalone="no"?><!DOCTYPE svg PUBLIC "-//W3C//DTD SVG 1.1//EN" "http://www.w3.org/Graphics/SVG/1.1/DTD/svg11.dtd"><svg t="1636195838604" class="icon" viewBox="0 0 1024 1024" version="1.1" xmlns="http://www.w3.org/2000/svg" p-id="2842" xmlns:xlink="http://www.w3.org/1999/xlink" width="200" height="200"><defs><style type="text/css"></style></defs><path d="M275.285 218.688s-21.632 2.803-21.958 72.538 1.088 525.664 1.088 534.163-13.76 33.107 20.864 54.144l7.117 10.848s-11.38 16.755 31.309 24.653 182.227 39.046 303.603 17.21 116.582-43.822 116.582-43.822l30.88-44.243-8.256-211.622 2.95-197.312s3.252-189.696-10.252-205.99a57.645 57.645 0 0 0-25.664-19.585 319.488 319.488 0 0 1-61.99 21.421c-26.625 4.883-139.636 18.701-167.617 14.336s-77.312-3.475-110.041-8.397-98.176-18.79-103.399-19.68-5.216 1.338-5.216 1.338z" fill="#EE6A54" p-id="2843"></path><path d="M523.945 949.498c-82.67 0-160.148-15.015-199.456-22.63-4.8-0.929-8.999-1.742-12.532-2.394-21.888-4.052-34.643-11.104-39.014-21.568a19.469 19.469 0 0 1-1.165-11.22l-3.366-5.126c-32.211-20.646-26.714-46.208-24.34-57.235a39.456 39.456 0 0 0 0.743-3.968l-0.115-41.888c-0.34-118.938-1.242-434.861-0.973-492.288 0.282-60.999 16.576-76.768 25.933-80.768a14.81 14.81 0 0 1 12.46-2.528c1.268 0.217 6.017 1.177 12.96 2.592 21.274 4.333 65.537 13.344 90.247 17.062 16.3 2.451 37.171 3.43 57.357 4.384 19.84 0.928 38.592 1.811 52.736 4.02 25.683 4 135.565-9.005 164.403-14.292a311.686 311.686 0 0 0 59.66-20.672 9.67 9.67 0 0 1 6.574-0.576 66.22 66.22 0 0 1 30.547 22.72c14.233 17.178 13.453 154.176 12.46 212.282l-2.956 197.299 8.256 211.104a9.606 9.606 0 0 1-1.722 5.869l-29.491 42.253a18.586 18.586 0 0 1-2.752 6.112c-10.982 16.448-51.827 31.13-121.389 43.648a540.07 540.07 0 0 1-95.065 7.808zM277.538 228.026c-1.28 0.768-14.368 10.01-14.611 63.244-0.269 57.357 0.634 373.23 0.973 492.141l0.115 41.984a38.304 38.304 0 0 1-1.171 7.968c-2.323 10.79-5.21 24.218 17.427 37.959a9.613 9.613 0 0 1 3.04 2.944l7.117 10.854a7.808 7.808 0 0 1-0.09 10.656c0.723 0.493 4.205 5.952 25.114 9.818 3.577 0.659 7.827 1.484 12.691 2.432 53.248 10.304 177.971 34.464 287.469 14.77 92.16-16.588 106.803-32.447 108.717-35.244a9.58 9.58 0 0 1 1.69-4.62l29.036-41.6-8.134-208.398 2.944-197.836c1.53-88.973-1.152-188.096-8.256-200.007a57.504 57.504 0 0 0-17.863-14.957 308.992 308.992 0 0 1-60.454 20.404c-24.192 4.435-140.224 19.155-170.835 14.374-13.12-2.048-31.36-2.906-50.676-3.808-20.672-0.973-42.035-1.978-59.308-4.576-25.197-3.789-69.792-12.87-91.226-17.235-5.248-1.069-9.19-1.875-11.2-2.266a9.478 9.478 0 0 1-2.509 0.999z m446.963 662.412l0.007 0.032z m0-0.025v0.019z m-0.012-0.026l0.006 0.013z m0-0.025v0.012z m-447.95-662.157l-0.031 0.006z m0.026 0h-0.025z m0.026 0h-0.02z m8.288-9.421z m0-0.026z m0-0.032z m0-0.032z m-9.6 0z" p-id="2844"></path><path d="M703.209 204.883h-0.064a9.6 9.6 0 1 1 0.064 0z m28.396 695.04a9.6 9.6 0 0 1-5.939-17.152 61.562 61.562 0 0 0 24.199-48.371V265.414a62.368 62.368 0 0 0-31.27-53.286 9.6 9.6 0 1 1 9.913-16.448 81.395 81.395 0 0 1 40.557 69.734V834.4a80.64 80.64 0 0 1-31.533 63.469 9.568 9.568 0 0 1-5.927 2.048z" p-id="2845"></path><path d="M724.969 198.624a11.603 11.603 0 0 1-1.415 5.286c-12.749 23.373-108.717 41.53-225.35 41.53-106.912 0-196.512-15.238-220.519-35.763a15.238 15.238 0 0 1-6.31-11.053" fill="#BBBBBB" p-id="2846"></path><path d="M498.204 255.04c-108.992 0-200.122-15.296-226.752-38.067a24.288 24.288 0 0 1-9.677-18.349 9.6 9.6 0 0 1 19.2 0c0 0.256 0.512 1.638 3.008 3.808 18.918 16.166 100.467 33.408 214.22 33.408 128.545 0 208.577-21.216 216.922-36.525a2.298 2.298 0 0 0 0.244-0.723 9.6 9.6 0 0 1 19.2 0.032 21.14 21.14 0 0 1-2.47 9.658c-17.55 32.192-133.518 46.758-233.895 46.758z" p-id="2847"></path><path d="M277.999 899.98a9.549 9.549 0 0 1-5.926-2.047 80.73 80.73 0 0 1-31.604-63.533V265.414a80.614 80.614 0 0 1 31.258-63.264 9.6 9.6 0 0 1 11.917 15.053 61.536 61.536 0 0 0-23.975 48.211V834.4a61.651 61.651 0 0 0 24.27 48.435 9.6 9.6 0 0 1-5.94 17.152z" p-id="2848"></path><path d="M271.407 175.302a226.79 46.765 0 1 0 453.58 0 226.79 46.765 0 1 0-453.58 0z" fill="#BBBBBB" p-id="2849"></path><path d="M498.197 231.667c-81.76 0-236.39-11.782-236.39-56.365s154.624-56.358 236.39-56.358 236.39 11.776 236.39 56.358-154.623 56.365-236.39 56.365z m0-93.523c-143.296 0-217.19 26.048-217.19 37.158s73.894 37.165 217.19 37.165 217.19-26.048 217.19-37.165-73.894-37.158-217.19-37.158z" p-id="2850"></path><path d="M278.524 186.97c25.165-20.16 113.99-35.098 219.68-35.098s194.451 14.938 219.622 35.098" fill="#BBBBBB" p-id="2851"></path><path d="M717.82 196.563a9.549 9.549 0 0 1-5.99-2.105c-20.474-16.39-100.417-32.986-213.62-32.986-113.248 0-193.216 16.595-213.69 32.986a9.6 9.6 0 1 1-12-14.983c27.783-22.253 118.477-37.203 225.684-37.203 107.168 0 197.837 14.95 225.619 37.203a9.6 9.6 0 0 1-6.01 17.088z" p-id="2852"></path><path d="M271.407 208.256a9.6 9.6 0 0 1-9.6-9.6v-23.354a9.6 9.6 0 0 1 19.2 0v23.354a9.6 9.6 0 0 1-9.6 9.6z m453.58 0a9.6 9.6 0 0 1-9.6-9.6v-23.354a9.6 9.6 0 1 1 19.2 0v23.354a9.6 9.6 0 0 1-9.6 9.6zM504.765 924.634a948.89 948.89 0 0 1-126.234-7.866 9.6 9.6 0 0 1 2.611-19.014 929.78 929.78 0 0 0 123.63 7.68 931.142 931.142 0 0 0 123.628-7.68 9.6 9.6 0 1 1 2.611 19.014 950.323 950.323 0 0 1-126.24 7.866z" p-id="2853"></path><path d="M504.79 948c-108.993 0-200.129-15.296-226.753-38.067a24.307 24.307 0 0 1-9.676-18.343 9.6 9.6 0 0 1 19.2 0c0 0.25 0.512 1.632 3.008 3.802 19.392 16.576 99.238 33.408 214.22 33.408 128.544 0 208.57-21.21 216.922-36.518a2.317 2.317 0 0 0 0.243-0.724 9.6 9.6 0 0 1 19.2 0.032 21.12 21.12 0 0 1-2.47 9.664C721.135 933.44 605.167 948 504.789 948z" p-id="2854"></path><path d="M278.012 901.197a9.6 9.6 0 0 1-9.6-9.6v-1.216a9.6 9.6 0 0 1 19.2 0v1.216a9.6 9.6 0 0 1-9.6 9.6z m453.587 0a9.6 9.6 0 0 1-9.6-9.6v-1.28a9.6 9.6 0 0 1 19.2 0v1.28a9.6 9.6 0 0 1-9.6 9.6zM610.613 220.928a9.555 9.555 0 0 1-2.643-0.371l-35.225-10.08c-1.044 0.019-1.984 0.045-2.842 0.077a17.408 17.408 0 0 1-13.965-3.7 19.104 19.104 0 0 1-4.365-14.464v-1.395a19.776 19.776 0 0 1 4.224-15.59 19.75 19.75 0 0 1 14.983-4.48l38.118-6.912a9.811 9.811 0 0 1 1.715-0.16 28.563 28.563 0 1 1 0 57.081z m-36.556-29.658a9.574 9.574 0 0 1 2.643 0.372l35.059 10.028a9.3 9.3 0 1 0-0.416-18.592l-37.965 6.887a15.546 15.546 0 0 1-2.611 0.16v1.19c1.005-0.025 2.1-0.045 3.29-0.045z" p-id="2855"></path><path d="M756.213 696.915c-123.302 38.368-187.001 20.506-222.406-3.104-45.875-30.585-42.63-76.454-96.416-114.713a329.14 329.14 0 0 0-185.126-58.912l1.062-228.96a329.146 329.146 0 0 1 185.126 58.912c53.786 38.259 50.535 84.128 96.416 114.713 35.405 23.61 99.098 41.472 222.4 3.104z" fill="#EEEEEE" p-id="2856"></path><path d="M630.14 728.717c-40.768 0-74.74-8.973-101.658-26.919-24.134-16.09-35.865-36.332-47.213-55.916-11.539-19.904-23.468-40.487-49.44-58.964a319.725 319.725 0 0 0-179.667-57.132 9.6 9.6 0 0 1-9.497-9.645l1.062-228.954a9.613 9.613 0 0 1 2.86-6.797 9.843 9.843 0 0 1 6.842-2.764 339.13 339.13 0 0 1 190.592 60.684c29.364 20.896 42.944 44.32 54.912 64.992 11.188 19.29 20.839 35.956 41.255 49.562 46.54 31.027 118.624 31.68 214.233 1.92A9.6 9.6 0 0 1 766.876 468l-1.063 228.96a9.6 9.6 0 0 1-6.745 9.12 441.203 441.203 0 0 1-128.935 22.637zM261.903 510.829a337.984 337.984 0 0 1 181.056 60.441c29.363 20.89 42.944 44.32 54.912 64.992 11.187 19.29 20.845 35.956 41.26 49.562 45.44 30.298 115.233 31.629 207.514 3.968l0.967-208.909c-95.296 27.623-168.615 24.928-218.074-8.045-24.134-16.09-35.865-36.332-47.213-55.91-11.539-19.904-23.468-40.493-49.44-58.97a318.502 318.502 0 0 0-170.01-56.876z m494.304 186.086z" p-id="2857"></path><path d="M291.676 714.432a9.6 9.6 0 0 1-9.6-9.6V350.221a9.6 9.6 0 0 1 19.2 0v354.611a9.6 9.6 0 0 1-9.6 9.6z" fill="#FFFFFF" p-id="2858"></path></svg>